<?xml version="1.0" encoding="UTF-8" standalone="no"?>
<!DOCTYPE svg PUBLIC "-//W3C//DTD SVG 1.1//EN"
 "http://www.w3.org/Graphics/SVG/1.1/DTD/svg11.dtd">
<!-- Generated by graphviz version 2.36.0 (20140111.2315)
 -->
<!-- Title: controllers_diagram Pages: 1 -->
<svg width="653pt" height="642pt"
 viewBox="0.00 0.00 653.00 642.00" xmlns="http://www.w3.org/2000/svg" xmlns:xlink="http://www.w3.org/1999/xlink">
<g id="graph0" class="graph" transform="scale(1 1) rotate(0) translate(4 638)">
<title>controllers_diagram</title>
<polygon fill="white" stroke="none" points="-4,4 -4,-638 649,-638 649,4 -4,4"/>
<!-- _diagram_info -->
<g id="node1" class="node"><title>_diagram_info</title>
<text text-anchor="start" x="407" y="-63.6" font-family="Times,serif" font-size="13.00">Controllers diagram</text>
<text text-anchor="start" x="407" y="-49.6" font-family="Times,serif" font-size="13.00">Date: Nov 27 2014 &#45; 22:01</text>
<text text-anchor="start" x="407" y="-35.6" font-family="Times,serif" font-size="13.00">Migration version: 20141127063216</text>
<text text-anchor="start" x="407" y="-21.6" font-family="Times,serif" font-size="13.00">Generated by RailRoady 1.2.0</text>
<text text-anchor="start" x="407" y="-7.6" font-family="Times,serif" font-size="13.00">http://railroady.prestonlee.com</text>
</g>
<!-- ApplicationController -->
<g id="node2" class="node"><title>ApplicationController</title>
<path fill="none" stroke="black" d="M222,-441.5C222,-441.5 395,-441.5 395,-441.5 401,-441.5 407,-447.5 407,-453.5 407,-453.5 407,-522.5 407,-522.5 407,-528.5 401,-534.5 395,-534.5 395,-534.5 222,-534.5 222,-534.5 216,-534.5 210,-528.5 210,-522.5 210,-522.5 210,-453.5 210,-453.5 210,-447.5 216,-441.5 222,-441.5"/>
<text text-anchor="middle" x="308.5" y="-519.3" font-family="Times,serif" font-size="14.00">ApplicationController</text>
<polyline fill="none" stroke="black" points="210,-511.5 407,-511.5 "/>
<text text-anchor="start" x="218" y="-496.3" font-family="Times,serif" font-size="14.00">_one_time_conditions_valid_12?</text>
<polyline fill="none" stroke="black" points="210,-488.5 407,-488.5 "/>
<polyline fill="none" stroke="black" points="210,-464.5 407,-464.5 "/>
<text text-anchor="start" x="218" y="-449.3" font-family="Times,serif" font-size="14.00">_layout</text>
</g>
<!-- ResumesController -->
<g id="node3" class="node"><title>ResumesController</title>
<path fill="none" stroke="black" d="M180,-105.5C180,-105.5 353,-105.5 353,-105.5 359,-105.5 365,-111.5 365,-117.5 365,-117.5 365,-381.5 365,-381.5 365,-387.5 359,-393.5 353,-393.5 353,-393.5 180,-393.5 180,-393.5 174,-393.5 168,-387.5 168,-381.5 168,-381.5 168,-117.5 168,-117.5 168,-111.5 174,-105.5 180,-105.5"/>
<text text-anchor="middle" x="266.5" y="-378.3" font-family="Times,serif" font-size="14.00">ResumesController</text>
<polyline fill="none" stroke="black" points="168,-370.5 365,-370.5 "/>
<text text-anchor="start" x="176" y="-355.3" font-family="Times,serif" font-size="14.00">_one_time_conditions_valid_14?</text>
<text text-anchor="start" x="176" y="-340.3" font-family="Times,serif" font-size="14.00">checkcssfile</text>
<text text-anchor="start" x="176" y="-325.3" font-family="Times,serif" font-size="14.00">checkdata</text>
<text text-anchor="start" x="176" y="-310.3" font-family="Times,serif" font-size="14.00">create</text>
<text text-anchor="start" x="176" y="-295.3" font-family="Times,serif" font-size="14.00">createpage</text>
<text text-anchor="start" x="176" y="-280.3" font-family="Times,serif" font-size="14.00">createtemplate</text>
<text text-anchor="start" x="176" y="-265.3" font-family="Times,serif" font-size="14.00">cssapi</text>
<text text-anchor="start" x="176" y="-250.3" font-family="Times,serif" font-size="14.00">delete</text>
<text text-anchor="start" x="176" y="-235.3" font-family="Times,serif" font-size="14.00">download</text>
<text text-anchor="start" x="176" y="-220.3" font-family="Times,serif" font-size="14.00">home</text>
<text text-anchor="start" x="176" y="-205.3" font-family="Times,serif" font-size="14.00">postcssfile</text>
<text text-anchor="start" x="176" y="-190.3" font-family="Times,serif" font-size="14.00">postdata</text>
<text text-anchor="start" x="176" y="-175.3" font-family="Times,serif" font-size="14.00">viewedit</text>
<text text-anchor="start" x="176" y="-160.3" font-family="Times,serif" font-size="14.00">viewlist</text>
<polyline fill="none" stroke="black" points="168,-152.5 365,-152.5 "/>
<polyline fill="none" stroke="black" points="168,-128.5 365,-128.5 "/>
<text text-anchor="start" x="176" y="-113.3" font-family="Times,serif" font-size="14.00">_layout</text>
</g>
<!-- UsersController -->
<g id="node4" class="node"><title>UsersController</title>
<path fill="none" stroke="black" d="M411,-126.5C411,-126.5 584,-126.5 584,-126.5 590,-126.5 596,-132.5 596,-138.5 596,-138.5 596,-372.5 596,-372.5 596,-378.5 590,-384.5 584,-384.5 584,-384.5 411,-384.5 411,-384.5 405,-384.5 399,-378.5 399,-372.5 399,-372.5 399,-138.5 399,-138.5 399,-132.5 405,-126.5 411,-126.5"/>
<text text-anchor="middle" x="497.5" y="-369.3" font-family="Times,serif" font-size="14.00">UsersController</text>
<polyline fill="none" stroke="black" points="399,-361.5 596,-361.5 "/>
<text text-anchor="start" x="407" y="-346.3" font-family="Times,serif" font-size="14.00">_one_time_conditions_valid_72?</text>
<text text-anchor="start" x="407" y="-331.3" font-family="Times,serif" font-size="14.00">_one_time_conditions_valid_76?</text>
<text text-anchor="start" x="407" y="-316.3" font-family="Times,serif" font-size="14.00">_one_time_conditions_valid_80?</text>
<text text-anchor="start" x="407" y="-301.3" font-family="Times,serif" font-size="14.00">create</text>
<text text-anchor="start" x="407" y="-286.3" font-family="Times,serif" font-size="14.00">destroy</text>
<text text-anchor="start" x="407" y="-271.3" font-family="Times,serif" font-size="14.00">edit</text>
<text text-anchor="start" x="407" y="-256.3" font-family="Times,serif" font-size="14.00">index</text>
<text text-anchor="start" x="407" y="-241.3" font-family="Times,serif" font-size="14.00">new</text>
<text text-anchor="start" x="407" y="-226.3" font-family="Times,serif" font-size="14.00">show</text>
<text text-anchor="start" x="407" y="-211.3" font-family="Times,serif" font-size="14.00">update</text>
<polyline fill="none" stroke="black" points="399,-203.5 596,-203.5 "/>
<polyline fill="none" stroke="black" points="399,-179.5 596,-179.5 "/>
<text text-anchor="start" x="407" y="-164.3" font-family="Times,serif" font-size="14.00">_layout</text>
<text text-anchor="start" x="407" y="-149.3" font-family="Times,serif" font-size="14.00">admin_user</text>
<text text-anchor="start" x="407" y="-134.3" font-family="Times,serif" font-size="14.00">correct_user</text>
</g>
<!-- SessionsController -->
<g id="node5" class="node"><title>SessionsController</title>
<path fill="none" stroke="black" d="M12,-252.5C12,-252.5 107,-252.5 107,-252.5 113,-252.5 119,-258.5 119,-264.5 119,-264.5 119,-363.5 119,-363.5 119,-369.5 113,-375.5 107,-375.5 107,-375.5 12,-375.5 12,-375.5 6,-375.5 0,-369.5 0,-363.5 0,-363.5 0,-264.5 0,-264.5 0,-258.5 6,-252.5 12,-252.5"/>
<text text-anchor="middle" x="59.5" y="-360.3" font-family="Times,serif" font-size="14.00">SessionsController</text>
<polyline fill="none" stroke="black" points="0,-352.5 119,-352.5 "/>
<text text-anchor="start" x="8" y="-337.3" font-family="Times,serif" font-size="14.00">create</text>
<text text-anchor="start" x="8" y="-322.3" font-family="Times,serif" font-size="14.00">destroy</text>
<text text-anchor="start" x="8" y="-307.3" font-family="Times,serif" font-size="14.00">new</text>
<polyline fill="none" stroke="black" points="0,-299.5 119,-299.5 "/>
<polyline fill="none" stroke="black" points="0,-275.5 119,-275.5 "/>
<text text-anchor="start" x="8" y="-260.3" font-family="Times,serif" font-size="14.00">_layout</text>
</g>
<!-- HomepagesController -->
<g id="node6" class="node"><title>HomepagesController</title>
<path fill="none" stroke="black" d="M453,-420.5C453,-420.5 633,-420.5 633,-420.5 639,-420.5 645,-426.5 645,-432.5 645,-432.5 645,-621.5 645,-621.5 645,-627.5 639,-633.5 633,-633.5 633,-633.5 453,-633.5 453,-633.5 447,-633.5 441,-627.5 441,-621.5 441,-621.5 441,-432.5 441,-432.5 441,-426.5 447,-420.5 453,-420.5"/>
<text text-anchor="middle" x="543" y="-618.3" font-family="Times,serif" font-size="14.00">HomepagesController</text>
<polyline fill="none" stroke="black" points="441,-610.5 645,-610.5 "/>
<text text-anchor="start" x="449" y="-595.3" font-family="Times,serif" font-size="14.00">_one_time_conditions_valid_108?</text>
<text text-anchor="start" x="449" y="-580.3" font-family="Times,serif" font-size="14.00">checkdata</text>
<text text-anchor="start" x="449" y="-565.3" font-family="Times,serif" font-size="14.00">create</text>
<text text-anchor="start" x="449" y="-550.3" font-family="Times,serif" font-size="14.00">cssapi</text>
<text text-anchor="start" x="449" y="-535.3" font-family="Times,serif" font-size="14.00">delete</text>
<text text-anchor="start" x="449" y="-520.3" font-family="Times,serif" font-size="14.00">download</text>
<text text-anchor="start" x="449" y="-505.3" font-family="Times,serif" font-size="14.00">home</text>
<text text-anchor="start" x="449" y="-490.3" font-family="Times,serif" font-size="14.00">postdata</text>
<text text-anchor="start" x="449" y="-475.3" font-family="Times,serif" font-size="14.00">view</text>
<polyline fill="none" stroke="black" points="441,-467.5 645,-467.5 "/>
<polyline fill="none" stroke="black" points="441,-443.5 645,-443.5 "/>
<text text-anchor="start" x="449" y="-428.3" font-family="Times,serif" font-size="14.00">_layout</text>
</g>
<!-- StaticPagesController -->
<g id="node7" class="node"><title>StaticPagesController</title>
<path fill="none" stroke="black" d="M54,-483.5C54,-483.5 164,-483.5 164,-483.5 170,-483.5 176,-489.5 176,-495.5 176,-495.5 176,-594.5 176,-594.5 176,-600.5 170,-606.5 164,-606.5 164,-606.5 54,-606.5 54,-606.5 48,-606.5 42,-600.5 42,-594.5 42,-594.5 42,-495.5 42,-495.5 42,-489.5 48,-483.5 54,-483.5"/>
<text text-anchor="middle" x="109" y="-591.3" font-family="Times,serif" font-size="14.00">StaticPagesController</text>
<polyline fill="none" stroke="black" points="42,-583.5 176,-583.5 "/>
<text text-anchor="start" x="50" y="-568.3" font-family="Times,serif" font-size="14.00">about</text>
<text text-anchor="start" x="50" y="-553.3" font-family="Times,serif" font-size="14.00">help</text>
<text text-anchor="start" x="50" y="-538.3" font-family="Times,serif" font-size="14.00">home</text>
<polyline fill="none" stroke="black" points="42,-530.5 176,-530.5 "/>
<polyline fill="none" stroke="black" points="42,-506.5 176,-506.5 "/>
<text text-anchor="start" x="50" y="-491.3" font-family="Times,serif" font-size="14.00">_layout</text>
</g>
</g>
</svg>
