<?xml version="1.0" encoding="UTF-8" standalone="no"?>
<!DOCTYPE svg PUBLIC "-//W3C//DTD SVG 1.1//EN"
 "http://www.w3.org/Graphics/SVG/1.1/DTD/svg11.dtd">
<!-- Generated by graphviz version 2.36.0 (20140111.2315)
 -->
<!-- Title: models_diagram Pages: 1 -->
<svg width="842pt" height="522pt"
 viewBox="0.00 0.00 842.00 522.00" xmlns="http://www.w3.org/2000/svg" xmlns:xlink="http://www.w3.org/1999/xlink">
<g id="graph0" class="graph" transform="scale(1 1) rotate(0) translate(4 518)">
<title>models_diagram</title>
<polygon fill="white" stroke="none" points="-4,4 -4,-518 838,-518 838,4 -4,4"/>
<!-- _diagram_info -->
<g id="node1" class="node"><title>_diagram_info</title>
<text text-anchor="start" x="8" y="-462.6" font-family="Times,serif" font-size="13.00">Models diagram</text>
<text text-anchor="start" x="8" y="-448.6" font-family="Times,serif" font-size="13.00">Date: Nov 27 2014 &#45; 22:00</text>
<text text-anchor="start" x="8" y="-434.6" font-family="Times,serif" font-size="13.00">Migration version: 20141127063216</text>
<text text-anchor="start" x="8" y="-420.6" font-family="Times,serif" font-size="13.00">Generated by RailRoady 1.2.0</text>
<text text-anchor="start" x="8" y="-406.6" font-family="Times,serif" font-size="13.00">http://railroady.prestonlee.com</text>
</g>
<!-- ResumeRelation -->
<g id="node2" class="node"><title>ResumeRelation</title>
<path fill="none" stroke="black" d="M95.5,-159C95.5,-159 280.5,-159 280.5,-159 286.5,-159 292.5,-165 292.5,-171 292.5,-171 292.5,-313 292.5,-313 292.5,-319 286.5,-325 280.5,-325 280.5,-325 95.5,-325 95.5,-325 89.5,-325 83.5,-319 83.5,-313 83.5,-313 83.5,-171 83.5,-171 83.5,-165 89.5,-159 95.5,-159"/>
<text text-anchor="middle" x="188" y="-309.8" font-family="Times,serif" font-size="14.00">ResumeRelation</text>
<polyline fill="none" stroke="black" points="83.5,-302 292.5,-302 "/>
<text text-anchor="start" x="91.5" y="-286.8" font-family="Times,serif" font-size="14.00">id :integer</text>
<text text-anchor="start" x="91.5" y="-271.8" font-family="Times,serif" font-size="14.00">user_id :integer</text>
<text text-anchor="start" x="91.5" y="-256.8" font-family="Times,serif" font-size="14.00">created_at :datetime</text>
<text text-anchor="start" x="91.5" y="-241.8" font-family="Times,serif" font-size="14.00">updated_at :datetime</text>
<text text-anchor="start" x="91.5" y="-226.8" font-family="Times,serif" font-size="14.00">resume_filename :string</text>
<text text-anchor="start" x="91.5" y="-211.8" font-family="Times,serif" font-size="14.00">resume_html_file_name :string</text>
<text text-anchor="start" x="91.5" y="-196.8" font-family="Times,serif" font-size="14.00">resume_html_content_type :string</text>
<text text-anchor="start" x="91.5" y="-181.8" font-family="Times,serif" font-size="14.00">resume_html_file_size :integer</text>
<text text-anchor="start" x="91.5" y="-166.8" font-family="Times,serif" font-size="14.00">resume_html_updated_at :datetime</text>
</g>
<!-- ResumeDataValue -->
<g id="node7" class="node"><title>ResumeDataValue</title>
<path fill="none" stroke="black" d="M134.5,-0.5C134.5,-0.5 241.5,-0.5 241.5,-0.5 247.5,-0.5 253.5,-6.5 253.5,-12.5 253.5,-12.5 253.5,-109.5 253.5,-109.5 253.5,-115.5 247.5,-121.5 241.5,-121.5 241.5,-121.5 134.5,-121.5 134.5,-121.5 128.5,-121.5 122.5,-115.5 122.5,-109.5 122.5,-109.5 122.5,-12.5 122.5,-12.5 122.5,-6.5 128.5,-0.5 134.5,-0.5"/>
<text text-anchor="middle" x="188" y="-106.3" font-family="Times,serif" font-size="14.00">ResumeDataValue</text>
<polyline fill="none" stroke="black" points="122.5,-98.5 253.5,-98.5 "/>
<text text-anchor="start" x="130.5" y="-83.3" font-family="Times,serif" font-size="14.00">id :integer</text>
<text text-anchor="start" x="130.5" y="-68.3" font-family="Times,serif" font-size="14.00">resume_id :integer</text>
<text text-anchor="start" x="130.5" y="-53.3" font-family="Times,serif" font-size="14.00">field_name :string</text>
<text text-anchor="start" x="130.5" y="-38.3" font-family="Times,serif" font-size="14.00">field_data :string</text>
<text text-anchor="start" x="130.5" y="-23.3" font-family="Times,serif" font-size="14.00">created_at :datetime</text>
<text text-anchor="start" x="130.5" y="-8.3" font-family="Times,serif" font-size="14.00">updated_at :datetime</text>
</g>
<!-- ResumeRelation&#45;&gt;ResumeDataValue -->
<g id="edge1" class="edge"><title>ResumeRelation&#45;&gt;ResumeDataValue</title>
<path fill="none" stroke="#423817" d="M188,-150.615C188,-144.34 188,-138.072 188,-131.933"/>
<ellipse fill="none" stroke="#423817" cx="188" cy="-154.834" rx="4" ry="4"/>
<polygon fill="#423817" stroke="#423817" points="188,-131.744 192.5,-121.744 188,-126.744 188,-121.744 188,-121.744 188,-121.744 188,-126.744 183.5,-121.744 188,-131.744 188,-131.744"/>
</g>
<!-- Homepage -->
<g id="node3" class="node"><title>Homepage</title>
<path fill="none" stroke="black" d="M323,-159C323,-159 525,-159 525,-159 531,-159 537,-165 537,-171 537,-171 537,-313 537,-313 537,-319 531,-325 525,-325 525,-325 323,-325 323,-325 317,-325 311,-319 311,-313 311,-313 311,-171 311,-171 311,-165 317,-159 323,-159"/>
<text text-anchor="middle" x="424" y="-309.8" font-family="Times,serif" font-size="14.00">Homepage</text>
<polyline fill="none" stroke="black" points="311,-302 537,-302 "/>
<text text-anchor="start" x="319" y="-286.8" font-family="Times,serif" font-size="14.00">id :integer</text>
<text text-anchor="start" x="319" y="-271.8" font-family="Times,serif" font-size="14.00">user_id :integer</text>
<text text-anchor="start" x="319" y="-256.8" font-family="Times,serif" font-size="14.00">homepage_name :string</text>
<text text-anchor="start" x="319" y="-241.8" font-family="Times,serif" font-size="14.00">created_at :datetime</text>
<text text-anchor="start" x="319" y="-226.8" font-family="Times,serif" font-size="14.00">updated_at :datetime</text>
<text text-anchor="start" x="319" y="-211.8" font-family="Times,serif" font-size="14.00">homepage_html_file_name :string</text>
<text text-anchor="start" x="319" y="-196.8" font-family="Times,serif" font-size="14.00">homepage_html_content_type :string</text>
<text text-anchor="start" x="319" y="-181.8" font-family="Times,serif" font-size="14.00">homepage_html_file_size :integer</text>
<text text-anchor="start" x="319" y="-166.8" font-family="Times,serif" font-size="14.00">homepage_html_updated_at :datetime</text>
</g>
<!-- HomepagesCssTemplate -->
<g id="node4" class="node"><title>HomepagesCssTemplate</title>
<path fill="none" stroke="black" d="M410.5,-362.5C410.5,-362.5 595.5,-362.5 595.5,-362.5 601.5,-362.5 607.5,-368.5 607.5,-374.5 607.5,-374.5 607.5,-501.5 607.5,-501.5 607.5,-507.5 601.5,-513.5 595.5,-513.5 595.5,-513.5 410.5,-513.5 410.5,-513.5 404.5,-513.5 398.5,-507.5 398.5,-501.5 398.5,-501.5 398.5,-374.5 398.5,-374.5 398.5,-368.5 404.5,-362.5 410.5,-362.5"/>
<text text-anchor="middle" x="503" y="-498.3" font-family="Times,serif" font-size="14.00">HomepagesCssTemplate</text>
<polyline fill="none" stroke="black" points="398.5,-490.5 607.5,-490.5 "/>
<text text-anchor="start" x="406.5" y="-475.3" font-family="Times,serif" font-size="14.00">id :integer</text>
<text text-anchor="start" x="406.5" y="-460.3" font-family="Times,serif" font-size="14.00">template_name :string</text>
<text text-anchor="start" x="406.5" y="-445.3" font-family="Times,serif" font-size="14.00">created_at :datetime</text>
<text text-anchor="start" x="406.5" y="-430.3" font-family="Times,serif" font-size="14.00">updated_at :datetime</text>
<text text-anchor="start" x="406.5" y="-415.3" font-family="Times,serif" font-size="14.00">template_file_file_name :string</text>
<text text-anchor="start" x="406.5" y="-400.3" font-family="Times,serif" font-size="14.00">template_file_content_type :string</text>
<text text-anchor="start" x="406.5" y="-385.3" font-family="Times,serif" font-size="14.00">template_file_file_size :integer</text>
<text text-anchor="start" x="406.5" y="-370.3" font-family="Times,serif" font-size="14.00">template_file_updated_at :datetime</text>
</g>
<!-- ResumesCssTemplate -->
<g id="node5" class="node"><title>ResumesCssTemplate</title>
<path fill="none" stroke="black" d="M637.5,-362.5C637.5,-362.5 822.5,-362.5 822.5,-362.5 828.5,-362.5 834.5,-368.5 834.5,-374.5 834.5,-374.5 834.5,-501.5 834.5,-501.5 834.5,-507.5 828.5,-513.5 822.5,-513.5 822.5,-513.5 637.5,-513.5 637.5,-513.5 631.5,-513.5 625.5,-507.5 625.5,-501.5 625.5,-501.5 625.5,-374.5 625.5,-374.5 625.5,-368.5 631.5,-362.5 637.5,-362.5"/>
<text text-anchor="middle" x="730" y="-498.3" font-family="Times,serif" font-size="14.00">ResumesCssTemplate</text>
<polyline fill="none" stroke="black" points="625.5,-490.5 834.5,-490.5 "/>
<text text-anchor="start" x="633.5" y="-475.3" font-family="Times,serif" font-size="14.00">id :integer</text>
<text text-anchor="start" x="633.5" y="-460.3" font-family="Times,serif" font-size="14.00">template_name :string</text>
<text text-anchor="start" x="633.5" y="-445.3" font-family="Times,serif" font-size="14.00">created_at :datetime</text>
<text text-anchor="start" x="633.5" y="-430.3" font-family="Times,serif" font-size="14.00">updated_at :datetime</text>
<text text-anchor="start" x="633.5" y="-415.3" font-family="Times,serif" font-size="14.00">template_file_file_name :string</text>
<text text-anchor="start" x="633.5" y="-400.3" font-family="Times,serif" font-size="14.00">template_file_content_type :string</text>
<text text-anchor="start" x="633.5" y="-385.3" font-family="Times,serif" font-size="14.00">template_file_file_size :integer</text>
<text text-anchor="start" x="633.5" y="-370.3" font-family="Times,serif" font-size="14.00">template_file_updated_at :datetime</text>
</g>
<!-- User -->
<g id="node6" class="node"><title>User</title>
<path fill="none" stroke="black" d="M244,-362.5C244,-362.5 368,-362.5 368,-362.5 374,-362.5 380,-368.5 380,-374.5 380,-374.5 380,-501.5 380,-501.5 380,-507.5 374,-513.5 368,-513.5 368,-513.5 244,-513.5 244,-513.5 238,-513.5 232,-507.5 232,-501.5 232,-501.5 232,-374.5 232,-374.5 232,-368.5 238,-362.5 244,-362.5"/>
<text text-anchor="middle" x="306" y="-498.3" font-family="Times,serif" font-size="14.00">User</text>
<polyline fill="none" stroke="black" points="232,-490.5 380,-490.5 "/>
<text text-anchor="start" x="240" y="-475.3" font-family="Times,serif" font-size="14.00">id :integer</text>
<text text-anchor="start" x="240" y="-460.3" font-family="Times,serif" font-size="14.00">name :string</text>
<text text-anchor="start" x="240" y="-445.3" font-family="Times,serif" font-size="14.00">email :string</text>
<text text-anchor="start" x="240" y="-430.3" font-family="Times,serif" font-size="14.00">created_at :datetime</text>
<text text-anchor="start" x="240" y="-415.3" font-family="Times,serif" font-size="14.00">updated_at :datetime</text>
<text text-anchor="start" x="240" y="-400.3" font-family="Times,serif" font-size="14.00">password_digest :string</text>
<text text-anchor="start" x="240" y="-385.3" font-family="Times,serif" font-size="14.00">remember_token :string</text>
<text text-anchor="start" x="240" y="-370.3" font-family="Times,serif" font-size="14.00">admin :boolean</text>
</g>
<!-- User&#45;&gt;ResumeRelation -->
<g id="edge2" class="edge"><title>User&#45;&gt;ResumeRelation</title>
<path fill="none" stroke="#96c244" d="M256.355,-355.381C252.073,-348.34 247.722,-341.188 243.398,-334.078"/>
<ellipse fill="none" stroke="#96c244" cx="258.468" cy="-358.855" rx="4.00002" ry="4.00002"/>
<polygon fill="#96c244" stroke="#96c244" points="243.138,-333.651 241.786,-322.769 240.54,-329.379 237.942,-325.108 237.942,-325.108 237.942,-325.108 240.54,-329.379 234.097,-327.446 243.138,-333.651 243.138,-333.651"/>
</g>
<!-- User&#45;&gt;Homepage -->
<g id="edge3" class="edge"><title>User&#45;&gt;Homepage</title>
<path fill="none" stroke="#dd5f15" d="M355.645,-355.381C359.927,-348.34 364.278,-341.188 368.602,-334.078"/>
<ellipse fill="none" stroke="#dd5f15" cx="353.532" cy="-358.855" rx="4.00002" ry="4.00002"/>
<polygon fill="#dd5f15" stroke="#dd5f15" points="368.862,-333.651 377.903,-327.446 371.46,-329.379 374.058,-325.108 374.058,-325.108 374.058,-325.108 371.46,-329.379 370.214,-322.769 368.862,-333.651 368.862,-333.651"/>
</g>
</g>
</svg>
