<?xml version="1.0" encoding="UTF-8" standalone="no"?>
<!DOCTYPE svg PUBLIC "-//W3C//DTD SVG 1.1//EN"
 "http://www.w3.org/Graphics/SVG/1.1/DTD/svg11.dtd">
<!-- Generated by graphviz version 2.36.0 (20140111.2315)
 -->
<!-- Title: models_diagram Pages: 1 -->
<svg width="705pt" height="230pt"
 viewBox="0.00 0.00 705.00 230.00" xmlns="http://www.w3.org/2000/svg" xmlns:xlink="http://www.w3.org/1999/xlink">
<g id="graph0" class="graph" transform="scale(1 1) rotate(0) translate(4 226)">
<title>models_diagram</title>
<polygon fill="white" stroke="none" points="-4,4 -4,-226 701,-226 701,4 -4,4"/>
<!-- _diagram_info -->
<g id="node1" class="node"><title>_diagram_info</title>
<text text-anchor="start" x="7" y="-207.6" font-family="Times,serif" font-size="13.00">Models diagram</text>
<text text-anchor="start" x="7" y="-193.6" font-family="Times,serif" font-size="13.00">Date: Nov 27 2014 &#45; 22:01</text>
<text text-anchor="start" x="7" y="-179.6" font-family="Times,serif" font-size="13.00">Migration version: 20141127063216</text>
<text text-anchor="start" x="7" y="-165.6" font-family="Times,serif" font-size="13.00">Generated by RailRoady 1.2.0</text>
<text text-anchor="start" x="7" y="-151.6" font-family="Times,serif" font-size="13.00">http://railroady.prestonlee.com</text>
</g>
<!-- ResumeRelation -->
<g id="node2" class="node"><title>ResumeRelation</title>
<ellipse fill="none" stroke="black" cx="189" cy="-90" rx="69.3156" ry="18"/>
<text text-anchor="middle" x="189" y="-86.3" font-family="Times,serif" font-size="14.00">ResumeRelation</text>
</g>
<!-- ResumeDataValue -->
<g id="node7" class="node"><title>ResumeDataValue</title>
<ellipse fill="none" stroke="black" cx="189" cy="-18" rx="77.0154" ry="18"/>
<text text-anchor="middle" x="189" y="-14.3" font-family="Times,serif" font-size="14.00">ResumeDataValue</text>
</g>
<!-- ResumeRelation&#45;&gt;ResumeDataValue -->
<g id="edge1" class="edge"><title>ResumeRelation&#45;&gt;ResumeDataValue</title>
<path fill="none" stroke="#239425" d="M189,-63.6398C189,-58.0629 189,-52.1319 189,-46.4761"/>
<ellipse fill="none" stroke="#239425" cx="189" cy="-67.6966" rx="4" ry="4"/>
<polygon fill="#239425" stroke="#239425" points="189,-46.1043 193.5,-36.1043 189,-41.1043 189,-36.1043 189,-36.1043 189,-36.1043 189,-41.1043 184.5,-36.1044 189,-46.1043 189,-46.1043"/>
</g>
<!-- Homepage -->
<g id="node3" class="node"><title>Homepage</title>
<ellipse fill="none" stroke="black" cx="326" cy="-90" rx="49.0941" ry="18"/>
<text text-anchor="middle" x="326" y="-86.3" font-family="Times,serif" font-size="14.00">Homepage</text>
</g>
<!-- HomepagesCssTemplate -->
<g id="node4" class="node"><title>HomepagesCssTemplate</title>
<ellipse fill="none" stroke="black" cx="402" cy="-183" rx="98.1881" ry="18"/>
<text text-anchor="middle" x="402" y="-179.3" font-family="Times,serif" font-size="14.00">HomepagesCssTemplate</text>
</g>
<!-- ResumesCssTemplate -->
<g id="node5" class="node"><title>ResumesCssTemplate</title>
<ellipse fill="none" stroke="black" cx="608" cy="-183" rx="89.0632" ry="18"/>
<text text-anchor="middle" x="608" y="-179.3" font-family="Times,serif" font-size="14.00">ResumesCssTemplate</text>
</g>
<!-- User -->
<g id="node6" class="node"><title>User</title>
<ellipse fill="none" stroke="black" cx="258" cy="-183" rx="26.949" ry="18"/>
<text text-anchor="middle" x="258" y="-179.3" font-family="Times,serif" font-size="14.00">User</text>
</g>
<!-- User&#45;&gt;ResumeRelation -->
<g id="edge2" class="edge"><title>User&#45;&gt;ResumeRelation</title>
<path fill="none" stroke="#1d3d4a" d="M241.347,-160.037C231.248,-146.719 218.334,-129.686 207.859,-115.872"/>
<ellipse fill="none" stroke="#1d3d4a" cx="243.878" cy="-163.376" rx="4.00002" ry="4.00002"/>
<polygon fill="#1d3d4a" stroke="#1d3d4a" points="207.742,-115.717 205.285,-105.03 204.721,-111.733 201.7,-107.749 201.7,-107.749 201.7,-107.749 204.721,-111.733 198.114,-110.468 207.742,-115.717 207.742,-115.717"/>
</g>
<!-- User&#45;&gt;Homepage -->
<g id="edge3" class="edge"><title>User&#45;&gt;Homepage</title>
<path fill="none" stroke="#4dd545" d="M274.444,-159.995C284.464,-146.585 297.288,-129.423 307.639,-115.571"/>
<ellipse fill="none" stroke="#4dd545" cx="271.93" cy="-163.359" rx="4.00002" ry="4.00002"/>
<polygon fill="#4dd545" stroke="#4dd545" points="307.732,-115.447 317.322,-110.13 310.725,-111.442 313.718,-107.437 313.718,-107.437 313.718,-107.437 310.725,-111.442 310.113,-104.743 307.732,-115.447 307.732,-115.447"/>
</g>
</g>
</svg>
